<svg xmlns="http://www.w3.org/2000/svg" xmlns:xlink="http://www.w3.org/1999/xlink" viewBox="0 0 183.34 134.63"><defs><style>.cls-1,.cls-12,.cls-6{fill:none;}.cls-2{isolation:isolate;}.cls-14,.cls-3,.cls-5{fill:#fff;}.cls-4{clip-path:url(#clip-path);}.cls-5,.cls-6{stroke:#ffd399;stroke-linecap:round;stroke-linejoin:round;}.cls-7{opacity:0.03;}.cls-8{fill:#c32615;}.cls-9{fill:url(#Degradado_sin_nombre_12);}.cls-10{opacity:0.17;mix-blend-mode:overlay;}.cls-11{fill:#ffd399;}.cls-12{stroke:#fff;stroke-width:3px;}.cls-12,.cls-14{stroke-miterlimit:10;}.cls-13{opacity:0.1;}.cls-14{stroke:#fbb03b;stroke-width:2px;}.cls-15{fill:url(#Degradado_sin_nombre_12-2);}.cls-16{fill:url(#Degradado_sin_nombre_12-3);}.cls-17{fill:url(#Degradado_sin_nombre_12-4);}.cls-18{fill:url(#Degradado_sin_nombre_12-5);}.cls-19{fill:url(#Degradado_sin_nombre_12-6);}.cls-20{fill:url(#Degradado_sin_nombre_12-7);}</style><clipPath id="clip-path" transform="translate(7.34 17.39)"><rect class="cls-1" x="29.95" y="-29.95" width="116.1" height="176" rx="8.25" transform="translate(146.05 -29.95) rotate(90)"/></clipPath><linearGradient id="Degradado_sin_nombre_12" y1="55.69" x2="176" y2="55.69" gradientUnits="userSpaceOnUse"><stop offset="0" stop-color="#c32615"/><stop offset="1" stop-color="#ef711c"/></linearGradient><linearGradient id="Degradado_sin_nombre_12-2" x1="111.8" y1="269.66" x2="124.73" y2="292.06" gradientTransform="matrix(1, 0, 0, -1, 0, 311.56)" xlink:href="#Degradado_sin_nombre_12"/><linearGradient id="Degradado_sin_nombre_12-3" x1="129.85" y1="275.52" x2="129.86" y2="275.54" gradientTransform="matrix(1, 0, 0, -1, 0, 311.56)" xlink:href="#Degradado_sin_nombre_12"/><linearGradient id="Degradado_sin_nombre_12-4" x1="116.63" y1="273.26" x2="119.82" y2="278.79" gradientTransform="matrix(1, 0, 0, -1, 0, 311.56)" xlink:href="#Degradado_sin_nombre_12"/><linearGradient id="Degradado_sin_nombre_12-5" x1="117.85" y1="280.58" x2="118.39" y2="281.51" gradientTransform="matrix(1, 0, 0, -1, 0, 311.56)" xlink:href="#Degradado_sin_nombre_12"/><linearGradient id="Degradado_sin_nombre_12-6" x1="117.79" y1="281.22" x2="118.69" y2="282.77" gradientTransform="matrix(1, 0, 0, -1, 0, 311.56)" xlink:href="#Degradado_sin_nombre_12"/><linearGradient id="Degradado_sin_nombre_12-7" x1="117" y1="275.99" x2="119.63" y2="280.55" gradientTransform="matrix(1, 0, 0, -1, 0, 311.56)" xlink:href="#Degradado_sin_nombre_12"/></defs><g class="cls-2"><g id="Capa_2" data-name="Capa 2"><g id="OBJECTS"><rect class="cls-3" x="29.95" y="-29.95" width="116.1" height="176" rx="8.25" transform="translate(153.39 -12.56) rotate(90)"/><rect class="cls-3" x="29.95" y="-29.95" width="116.1" height="176" rx="8.25" transform="translate(153.39 -12.56) rotate(90)"/><g class="cls-4"><path class="cls-5" d="M103.89,18.43c0,19.5-22.18,35.31-22.18,35.31S59.53,37.93,59.53,18.43,81.71-16.89,81.71-16.89,103.89-1.08,103.89,18.43Z" transform="translate(7.34 17.39)"/><line class="cls-6" x1="89.05" y1="0.5" x2="89.05" y2="71.13"/><polyline class="cls-6" points="77.62 11.24 89.05 23.14 100.48 11.24"/><polyline class="cls-6" points="72.51 18.59 89.05 35.8 105.58 18.59"/><polyline class="cls-6" points="67.4 30.93 89.05 53.46 110.69 30.93"/><polyline class="cls-6" points="67.4 39.93 89.05 62.46 110.69 39.93"/><path class="cls-5" d="M42.05-4C58.39,6.62,59.53,33.83,59.53,33.83s-25.36,10-41.7-.69S.35-4.73.35-4.73,25.71-14.68,42.05-4Z" transform="translate(7.34 17.39)"/><line class="cls-6" x1="7.69" y1="12.66" x2="66.86" y2="51.22"/><polyline class="cls-6" points="10.45 28.1 26.66 25.02 22.93 8.95"/><polyline class="cls-6" points="13.81 36.39 37.26 31.93 31.87 8.68"/><polyline class="cls-6" points="21.36 47.41 52.06 41.57 45 11.14"/><polyline class="cls-6" points="28.9 52.32 59.6 46.49 52.54 16.05"/><path class="cls-5" d="M83,74.92C65.8,84.11,41.4,72,41.4,72s3.49-27,20.69-36.21,41.6,2.92,41.6,2.92S100.2,65.72,83,74.92Z" transform="translate(7.34 17.39)"/><line class="cls-6" x1="111.03" y1="56.1" x2="48.74" y2="89.39"/><polyline class="cls-6" points="96.17 51.08 91.06 66.77 106.94 71.24"/><polyline class="cls-6" points="87.29 50.04 79.9 72.74 102.88 79.21"/><polyline class="cls-6" points="73.99 51.35 64.33 81.06 94.4 89.53"/><polyline class="cls-6" points="66.06 55.59 56.39 85.3 86.46 93.78"/><path class="cls-5" d="M36.59,65.07C30.18,83.48,4,91.12,4,91.12S-11.72,68.89-5.3,50.47s32.56-26,32.56-26S43,46.65,36.59,65.07Z" transform="translate(7.34 17.39)"/><line class="cls-6" x1="34.6" y1="41.81" x2="11.37" y2="108.51"/><polyline class="cls-6" points="20.27 48.2 27.15 63.19 41.86 55.72"/><polyline class="cls-6" points="13.03 53.45 22.99 75.14 44.27 64.33"/><polyline class="cls-6" points="4.15 63.42 17.18 91.82 45.03 77.66"/><polyline class="cls-6" points="1.19 71.92 14.22 100.32 42.08 86.16"/></g><g class="cls-4"><path class="cls-7" d="M112.34-5.86h18.54l36.88,2a8.16,8.16,0,0,1,4.13,1.12A8.23,8.23,0,0,1,173,1.39V108a8.24,8.24,0,0,1-8.24,8.25H5.25a9.28,9.28,0,0,1-1.06-.07A8.25,8.25,0,0,1,0,109V90.93C28.56,89.37,105.84,60.16,112.34-5.86Z" transform="translate(7.34 17.39)"/><path class="cls-8" d="M8.25,117.24A8.25,8.25,0,0,1,0,109V92c26.17.27,111.83-26.41,115.66-97.87h52.1A8.24,8.24,0,0,1,176,2.39V109a8.24,8.24,0,0,1-8.24,8.25Z" transform="translate(7.34 17.39)"/><path class="cls-7" d="M0,99.34c25.18,3.87,148,19.22,159.08-105.2h8.62A8.26,8.26,0,0,1,172,1.39V108a8.24,8.24,0,0,1-8.24,8.25H4.31A8.24,8.24,0,0,1,0,109Z" transform="translate(7.34 17.39)"/><path class="cls-9" d="M8.25,117.24A8.25,8.25,0,0,1,0,109V99.71C9.5,101,151.83,129.35,163.18-5.86h4.58A8.24,8.24,0,0,1,176,2.39V109a8.24,8.24,0,0,1-8.24,8.25Z" transform="translate(7.34 17.39)"/></g><path class="cls-10" d="M15.57,29.79a3.35,3.35,0,0,0-3.34,3.34V87a3.35,3.35,0,0,0,3.34,3.35H56.89A3.35,3.35,0,0,0,60.23,87V33.13a3.35,3.35,0,0,0-3.34-3.34Z" transform="translate(7.34 17.39)"/><rect class="cls-11" x="19.57" y="45.18" width="48" height="60.52" rx="3.35"/><rect class="cls-12" x="19.57" y="45.18" width="48" height="60.52" rx="3.35"/><circle class="cls-13" cx="118.07" cy="32.74" r="16.5" transform="translate(18.77 110.47) rotate(-45)"/><circle class="cls-14" cx="118.07" cy="30.74" r="16.5" transform="translate(20.18 109.88) rotate(-45)"/><path class="cls-15" d="M108,37.61h-2.67c-.16,0-.35,0-.44.14a.22.22,0,0,0,.24.23h26c.11,0,.21-.07.21-.22s-.25-.14-.4-.14h-2.47a.64.64,0,0,1-.49-.09A92.34,92.34,0,0,0,128.13,27a4.82,4.82,0,0,1,.5,2.07.81.81,0,0,0,.5-.84,4.38,4.38,0,0,0-.18-1.14c0-.11-.09-.23.14-.32,0,.36.29.55.39.83s.43.42.59.67a1.62,1.62,0,0,0,0-1.54,4.7,4.7,0,0,0-.6-.79c-.06-.06-.16-.13-.05-.25a3.73,3.73,0,0,0,1.17.45l.49.65h0l.1.11a.83.83,0,0,0-.33-1.43,4.45,4.45,0,0,0-1.25-.34c-.08,0-.19,0-.2-.16a7.3,7.3,0,0,0,1.1-.33h.09c.21.05.41.07.53-.19.13.18.28.1.43.06-.14-.5-.24-.58-.74-.58h-.87c.09-.22.25-.24.37-.31s.2-.09.18-.23H131a1.11,1.11,0,0,0-.76-.67,1.72,1.72,0,0,0-1.83.67c0-.39.18-.67.16-1-.79.08-.79.74-1,1.25-.15,0-.18-.14-.25-.21a1.5,1.5,0,0,0-1.6-.38c-.23.08-.45.17-.68.23a.7.7,0,0,0-.49.55,2.09,2.09,0,0,0,.92-.25h0v0h0c.07.33.35.23.58.3.14.28.51.3.74.62l-.39-.1a3.51,3.51,0,0,0-1.07-.11,1,1,0,0,0-.88,1.11c.16,0,.26-.12.43-.15.2.22.37,0,.56-.08,0,.23.29.08.41.25-.31.26-.67.52-.48,1,.18-.09.32-.23.52-.18h0l0,0h0c-.11.18-.23.36-.32.54a1.67,1.67,0,0,0,0,1.48c.18,0,.1-.19.21-.24a3.86,3.86,0,0,0,.9-1.26c0,.65-.33,1.3,0,2,.11.09.2.25.4.26a5.57,5.57,0,0,1,.54-2.21c.42,2.23-.06,9.71-.69,10.81a2.79,2.79,0,0,1-1,0c0-1,.11-2,.06-3,.15,0,.12.19.22.13s.06-.27.13-.37.12.2.26.13,0-.39,0-.59c.2-.05.28.16.46.17.1-.36-.25-.39-.41-.54.1-.17.37,0,.41-.24s-.22-.09-.26-.21.11-.09,0-.2a.48.48,0,0,0-.61,0c-.11,0-.12-.14-.22-.1s-.12.18-.27.22a.65.65,0,0,0-.8.08c.09.12.29,0,.32.21-.15.07-.42,0-.41.32l.25.1c.08.3,0,.59.08.83.15,0,.17-.13.27-.11s0,.27.15.32.08-.27.23-.4a11.36,11.36,0,0,1-.21,3.31H124c.12-2,.22-4,.14-6,.23.3.16.69.33,1,.26-.13.24-.34.25-.55s-.11-.4-.06-.61c.23.22.24.63.62.71.27-.57-.09-1-.43-1.43l.75.31.15.2c0,.06.07.15.17.12.22-.35.17-.56-.15-.75a1.93,1.93,0,0,0-.56-.18c-.08,0-.2,0-.21-.12a7,7,0,0,1,1.09-.29.32.32,0,0,0-.17-.29c-.19-.08-.42,0-.62-.08.1-.17.29-.21.39-.34s-.18-.25-.32-.31c-.4-.18-.71.07-1,.24,0-.16.08-.3,0-.41-.4,0-.33.42-.52.6-.66-.44-1.44-.37-1.63.14.69,0,.76,0,1,.35-.86-.1-1.06,0-1.07.59.24,0,.49-.1.75.05-.16.16-.33.31-.25.54,0,.05.07,0,.11,0s.07,0,.11,0a.94.94,0,0,0-.08,1c.34-.15.38-.52.62-.72-.11.9-.1.95.2,1.15.12-.36.07-.78.33-1.09a21.39,21.39,0,0,1-.37,6.13,3,3,0,0,1-1,0c-.08-.14,0-.29-.12-.4a.23.23,0,0,0-.16-.1c-2.64-.05-5.28,0-7.91,0a.49.49,0,0,0-.36.09c-.14.1,0,.32-.2.45a1.34,1.34,0,0,1-.76,0,21.37,21.37,0,0,1-.35-6c.27.31.19.72.36,1.1.42-.38.14-.81.16-1.21.24.22.3.58.61.73a.64.64,0,0,0,.12-.54c0-.19-.14-.34-.19-.51s.17,0,.21-.08c.11-.24-.12-.35-.21-.51.13-.09.25,0,.37-.07s.25.06.37,0c-.08-.55-.19-.61-1.12-.59.27-.35.64-.32,1-.3,0-.31-.3-.29-.48-.37a1.07,1.07,0,0,0-.66-.08c-.21,0-.35.22-.55.27-.16-.23-.13-.61-.54-.59v.4h0v0a5.79,5.79,0,0,0-.57-.25.62.62,0,0,0-.79.36c.11.12.29.16.39.32-.27.14-.72-.13-.8.41a3,3,0,0,1,1.15.29,3.77,3.77,0,0,0-.8.25c-.35.19-.4.44-.15.78.15-.08.19-.25.35-.36l.58-.22a1.3,1.3,0,0,0-.31,1.37c.36-.12.38-.51.64-.71,0,.41-.28.86.18,1.22a3.33,3.33,0,0,1,.31-1,59.15,59.15,0,0,0,.14,6,4.63,4.63,0,0,1-1.53,0,6.82,6.82,0,0,1-.18-3.16c.09.09,0,.28.18.32s0-.26.14-.34.14.16.28.07a4.3,4.3,0,0,0,0-.81c.08-.07.22,0,.27-.13a.25.25,0,0,0-.12-.23c-.1-.06-.24,0-.33-.09s.27,0,.36-.2a.73.73,0,0,0-.83-.08c-.14,0-.16-.21-.33-.24s0,.1-.13.12-.43-.16-.6.09l-.24.41c.08.15.29,0,.38.18-.42.32-.42.32-.3.57.14-.05.23-.23.41-.13h0v0h0c-.1.19-.24.37-.06.59.15,0,.17-.17.29-.18s0,0,0,0l0,0c0,.14-.07.31.11.41.14-.08.06-.26.18-.33h0v0c0,1.07,0,2.13.09,3.19a2.3,2.3,0,0,1-1.12,0c-.63-1.6-1.1-9.63-.62-10.71a6.45,6.45,0,0,1,.53,2.2.7.7,0,0,0,.48-.7,4.28,4.28,0,0,0-.14-1.18c0-.11-.13-.24,0-.37a4.22,4.22,0,0,0,1.06,1.5,1.62,1.62,0,0,0-.07-1.66c-.07-.13-.21-.24-.15-.42h0v0h0a3,3,0,0,1,.46.26c.22-.55-.23-.79-.5-1.12.18-.08.36,0,.45-.17a.52.52,0,0,0,.56.06l.36.14s0,0,.07,0c-.08-.82-.39-1.09-1.18-1.11a11.16,11.16,0,0,0-1.16.16,2.88,2.88,0,0,1,1.09-.64.3.3,0,0,0,.22-.14h0l-.07-.08v0h0l.07.08h0c.29,0,.54.21.84.17,0-.3-.1-.42-.29-.49a8.28,8.28,0,0,0-1.1-.35,1.39,1.39,0,0,0-1.3.41c-.08.08-.14.2-.27.23-.2-.5-.18-1.16-1-1.25-.07.34.18.62.09,1a3.57,3.57,0,0,0-.69-.52,1.3,1.3,0,0,0-1.8.58l.38,0c.08.29.48.23.61.52h-1c-.44,0-.56.13-.65.58a.37.37,0,0,0,.45,0c.15.35.41.16.6.15a1.6,1.6,0,0,0,1,.28c.15,0,.13.09.1.2a4.87,4.87,0,0,0-1.44.38c-.7.35-.8.91-.26,1.52a3.27,3.27,0,0,1,.53-.85c.44,0,.76-.35,1.27-.42-.24.31-.44.55-.62.8a1.51,1.51,0,0,0-.33.88,1.41,1.41,0,0,0,.21.89c.12-.07.06-.19.16-.24a3.14,3.14,0,0,0,.87-1.27c.17.14.07.27,0,.39a4.56,4.56,0,0,0-.15,1.1.83.83,0,0,0,.51.8,5.07,5.07,0,0,1,.5-2.11c0,1.78,0,3.55,0,5.32s.15,3.53.24,5.27A1.29,1.29,0,0,1,108,37.61Z" transform="translate(7.34 17.39)"/><path class="cls-16" d="M129.85,36h0Z" transform="translate(7.34 17.39)"/><path class="cls-17" d="M121.23,34.12l-.32.23h-5.23a.35.35,0,0,1-.27-.06c-.31-.28-.7-.16-1.06-.24a2.78,2.78,0,0,1-.48.42c0,.75,0,1.51,0,2.24a.94.94,0,0,0,.51.11,18.72,18.72,0,0,0,2.37-.13c1.73,0,3.46,0,5.18.12a.9.9,0,0,0,.57-.09V34.41a1.11,1.11,0,0,1-.45-.35ZM115,36.19a.67.67,0,0,1-.63,0,1.92,1.92,0,0,1-.05-.92c0-.28.22-.33.69-.2a2.58,2.58,0,0,1,0,1.14Zm1.34,0a.8.8,0,0,1-.55,0c-.24-.32-.07-.69-.12-1,.29-.27.41-.28.76,0a1.94,1.94,0,0,1-.09,1.06Zm1.37,0a.73.73,0,0,1-.56,0,1.63,1.63,0,0,1,0-1.17.57.57,0,0,1,.67.09,2,2,0,0,1-.07,1.06Zm1.41,0a.69.69,0,0,1-.59,0,1.13,1.13,0,0,1,0-1.2.64.64,0,0,1,.49,0,1.78,1.78,0,0,1,.06,1.14Zm1.39-.05c-.2.18-.4.13-.65.09a1.51,1.51,0,0,1,0-1.18.66.66,0,0,1,.58,0,2.24,2.24,0,0,1,.05,1.06Zm1.32.06a.71.71,0,0,1-.62,0,3,3,0,0,1,0-1.08.49.49,0,0,1,.7,0,2.91,2.91,0,0,1,0,1.06Z" transform="translate(7.34 17.39)"/><path class="cls-18" d="M118.86,30.72a.3.3,0,0,0,0-.4c-.48,0-1,0-1.49,0a.27.27,0,0,0,0,.39A3.82,3.82,0,0,0,118.86,30.72Z" transform="translate(7.34 17.39)"/><path class="cls-19" d="M118.92,30.06c0-.37-.21-.51-.38-.68s0-.5-.09-.72-.36-.18-.51-.11c-.37.19-.17.57-.28.85s-.43.33-.3.69A2.38,2.38,0,0,0,118.92,30.06Z" transform="translate(7.34 17.39)"/><path class="cls-20" d="M114.06,33.87c2.75.12,5.46.12,8.16,0a.73.73,0,0,0,0-.61A3.38,3.38,0,0,0,120,31.31c-.25-.08-.51-.14-.61-.44a23.42,23.42,0,0,1-2.37,0c-.09.29-.33.36-.58.43a3.38,3.38,0,0,0-1.89,1.31A1.76,1.76,0,0,0,114.06,33.87Zm7.13-.27a1.42,1.42,0,0,1-.79,0,3.75,3.75,0,0,0-1.12-2.14A2.43,2.43,0,0,1,121.19,33.6ZM118,31.41c.11-.09.18-.09.26-.05a.68.68,0,0,1,.06.42v1.75c0,.16,0,.32-.32.28C118,33,118,32.19,118,31.41Zm-1,0a4.08,4.08,0,0,0-1.09,2.13,1.4,1.4,0,0,1-.81,0A2.47,2.47,0,0,1,117,31.45Z" transform="translate(7.34 17.39)"/></g></g></g></svg>