<svg xmlns="http://www.w3.org/2000/svg" xmlns:xlink="http://www.w3.org/1999/xlink" viewBox="0 0 135.38 193.15"><defs><style>.cls-1,.cls-11,.cls-6{fill:none;}.cls-2{isolation:isolate;}.cls-13,.cls-3{fill:#fff;}.cls-4{opacity:0.03;}.cls-5{clip-path:url(#clip-path);}.cls-6{stroke:#ffd399;stroke-linecap:round;stroke-linejoin:round;}.cls-7{fill:#c32615;}.cls-8{fill:url(#Degradado_sin_nombre_12);}.cls-9{opacity:0.17;mix-blend-mode:overlay;}.cls-10{fill:#ffd399;}.cls-11{stroke:#fff;stroke-width:3px;}.cls-11,.cls-13{stroke-miterlimit:10;}.cls-12{fill:#fbb03b;}.cls-13{stroke:#fbb03b;stroke-width:2px;}.cls-14{fill:url(#Degradado_sin_nombre_12-2);}.cls-15{fill:url(#Degradado_sin_nombre_12-3);}.cls-16{fill:url(#Degradado_sin_nombre_12-4);}.cls-17{fill:url(#Degradado_sin_nombre_12-5);}.cls-18{fill:url(#Degradado_sin_nombre_12-6);}.cls-19{fill:url(#Degradado_sin_nombre_12-7);}</style><clipPath id="clip-path" transform="translate(12.28 17.15)"><rect class="cls-1" width="123.1" height="176" rx="8.25"/></clipPath><linearGradient id="Degradado_sin_nombre_12" y1="88" x2="123.1" y2="88" gradientUnits="userSpaceOnUse"><stop offset="0" stop-color="#c32615"/><stop offset="1" stop-color="#ef711c"/></linearGradient><linearGradient id="Degradado_sin_nombre_12-2" x1="14.85" y1="-74.02" x2="27.78" y2="-51.62" gradientTransform="matrix(1, 0, 0, -1, 0, -42.67)" xlink:href="#Degradado_sin_nombre_12"/><linearGradient id="Degradado_sin_nombre_12-3" x1="32.9" y1="-68.15" x2="32.91" y2="-68.13" gradientTransform="matrix(1, 0, 0, -1, 0, -42.67)" xlink:href="#Degradado_sin_nombre_12"/><linearGradient id="Degradado_sin_nombre_12-4" x1="19.68" y1="-70.41" x2="22.88" y2="-64.88" gradientTransform="matrix(1, 0, 0, -1, 0, -42.67)" xlink:href="#Degradado_sin_nombre_12"/><linearGradient id="Degradado_sin_nombre_12-5" x1="20.91" y1="-63.09" x2="21.44" y2="-62.16" gradientTransform="matrix(1, 0, 0, -1, 0, -42.67)" xlink:href="#Degradado_sin_nombre_12"/><linearGradient id="Degradado_sin_nombre_12-6" x1="20.85" y1="-62.45" x2="21.74" y2="-60.91" gradientTransform="matrix(1, 0, 0, -1, 0, -42.67)" xlink:href="#Degradado_sin_nombre_12"/><linearGradient id="Degradado_sin_nombre_12-7" x1="20.05" y1="-67.68" x2="22.69" y2="-63.12" gradientTransform="matrix(1, 0, 0, -1, 0, -42.67)" xlink:href="#Degradado_sin_nombre_12"/></defs><g class="cls-2"><g id="Capa_2" data-name="Capa 2"><g id="OBJECTS"><rect class="cls-3" x="12.28" y="17.15" width="123.1" height="176" rx="8.25"/><rect class="cls-3" x="12.28" y="17.15" width="123.1" height="176" rx="8.25"/><path class="cls-4" d="M0,112.34v18.54l2,36.88a8.16,8.16,0,0,0,1.12,4.13A8.23,8.23,0,0,0,7.25,173h106.6a8.24,8.24,0,0,0,8.25-8.24V5.25A9.28,9.28,0,0,0,122,4.19,8.25,8.25,0,0,0,114.85,0H96.79C95.23,28.56,66,105.84,0,112.34Z" transform="translate(12.28 17.15)"/><g class="cls-5"><path class="cls-6" d="M99,18.67C99,38.17,76.77,54,76.77,54S54.59,38.17,54.59,18.67,76.77-16.65,76.77-16.65,99-.84,99,18.67Z" transform="translate(12.28 17.15)"/><line class="cls-6" x1="89.05" y1="0.5" x2="89.05" y2="71.13"/><polyline class="cls-6" points="77.62 11.24 89.05 23.14 100.48 11.24"/><polyline class="cls-6" points="72.51 18.59 89.05 35.8 105.58 18.59"/><polyline class="cls-6" points="67.4 30.93 89.05 53.46 110.69 30.93"/><polyline class="cls-6" points="67.4 39.93 89.05 62.46 110.69 39.93"/><path class="cls-6" d="M37.11-3.79C53.45,6.86,54.59,34.08,54.59,34.08s-25.36,10-41.7-.7S-4.59-4.49-4.59-4.49,20.77-14.44,37.11-3.79Z" transform="translate(12.28 17.15)"/><line class="cls-6" x1="7.69" y1="12.66" x2="66.86" y2="51.22"/><polyline class="cls-6" points="10.45 28.1 26.66 25.02 22.93 8.95"/><polyline class="cls-6" points="13.81 36.39 37.26 31.93 31.87 8.68"/><polyline class="cls-6" points="21.36 47.41 52.06 41.57 45 11.14"/><polyline class="cls-6" points="28.9 52.32 59.6 46.49 52.54 16.05"/><path class="cls-6" d="M74.3,74.34c-17.21,9.19-41.61-2.92-41.61-2.92s3.49-27,20.7-36.21S95,38.13,95,38.13,91.5,65.15,74.3,74.34Z" transform="translate(12.28 17.15)"/><line class="cls-6" x1="107.27" y1="55.28" x2="44.97" y2="88.57"/><polyline class="cls-6" points="92.4 50.26 87.3 65.95 103.18 70.42"/><polyline class="cls-6" points="83.52 49.22 76.14 71.92 99.11 78.39"/><polyline class="cls-6" points="70.23 50.53 60.56 80.24 90.64 88.71"/><polyline class="cls-6" points="62.29 54.77 52.62 84.48 82.7 92.95"/><path class="cls-6" d="M31.65,65.31C25.24,83.73-.91,91.36-.91,91.36s-15.75-22.22-9.33-40.64S22.32,24.66,22.32,24.66,38.07,46.89,31.65,65.31Z" transform="translate(12.28 17.15)"/><line class="cls-6" x1="34.6" y1="41.81" x2="11.37" y2="108.51"/><polyline class="cls-6" points="20.27 48.2 27.15 63.19 41.86 55.72"/><polyline class="cls-6" points="13.03 53.45 22.99 75.14 44.27 64.33"/><polyline class="cls-6" points="4.15 63.42 17.18 91.82 45.03 77.66"/><polyline class="cls-6" points="1.19 71.92 14.22 100.32 42.08 86.16"/><path class="cls-6" d="M36.42,124.26C17.06,126.66-1.36,106.6-1.36,106.6s13-24,32.31-26.37S68.73,97.89,68.73,97.89,55.77,121.85,36.42,124.26Z" transform="translate(12.28 17.15)"/><line class="cls-6" x1="81.01" y1="115.04" x2="10.92" y2="123.74"/><polyline class="cls-6" points="68.94 105.02 58.54 117.83 71.75 127.71"/><polyline class="cls-6" points="61.02 100.86 45.98 119.39 65.1 133.68"/><polyline class="cls-6" points="48.15 97.31 28.45 121.56 53.48 140.27"/><polyline class="cls-6" points="39.21 98.42 19.52 122.67 44.55 141.38"/></g><path class="cls-7" d="M123.1,8.25A8.25,8.25,0,0,0,114.85,0h-17C98.14,26.17,71.46,111.83,0,115.66v52.1A8.24,8.24,0,0,0,8.25,176h106.6a8.24,8.24,0,0,0,8.25-8.24Z" transform="translate(12.28 17.15)"/><path class="cls-4" d="M105.19,0C109.06,25.18,124.42,148,0,159.08v8.62A8.26,8.26,0,0,0,7.25,172h106.6a8.24,8.24,0,0,0,8.25-8.24V4.31A8.24,8.24,0,0,0,114.85,0Z" transform="translate(12.28 17.15)"/><path class="cls-8" d="M123.1,8.25A8.25,8.25,0,0,0,114.85,0h-9.28C106.85,9.5,135.21,151.83,0,163.18v4.58A8.24,8.24,0,0,0,8.25,176h106.6a8.24,8.24,0,0,0,8.25-8.24Z" transform="translate(12.28 17.15)"/><path class="cls-9" d="M14.16,46.88a3.35,3.35,0,0,0-3.35,3.35v53.83a3.35,3.35,0,0,0,3.35,3.34H55.47a3.35,3.35,0,0,0,3.35-3.34V50.23a3.35,3.35,0,0,0-3.35-3.35Z" transform="translate(12.28 17.15)"/><rect class="cls-10" x="18.73" y="59.85" width="48" height="60.52" rx="3.35"/><rect class="cls-11" x="18.73" y="59.85" width="48" height="60.52" rx="3.35"/><rect class="cls-4" x="43.64" y="35.13" width="91.74" height="19.49"/><rect class="cls-12" x="38.7" y="27.31" width="96.67" height="19.49"/><ellipse class="cls-4" cx="33.35" cy="39.06" rx="17.19" ry="16.5"/><ellipse class="cls-13" cx="33.35" cy="37.06" rx="17.19" ry="16.5"/><path class="cls-14" d="M11,27.06H8.34c-.16,0-.35,0-.45.14a.22.22,0,0,0,.24.23H33.78a1.77,1.77,0,0,0,.32,0,.2.2,0,0,0,.2-.21c-.07-.18-.25-.14-.4-.14H31.43a.65.65,0,0,1-.49-.09,94.69,94.69,0,0,0,.25-10.53,5.12,5.12,0,0,1,.5,2.07.84.84,0,0,0,.5-.84A5.42,5.42,0,0,0,32,16.53c0-.11-.1-.23.13-.32,0,.36.29.55.4.83s.42.42.58.67a1.59,1.59,0,0,0,0-1.54,4.22,4.22,0,0,0-.6-.79c-.06-.06-.15-.13,0-.25a3.89,3.89,0,0,0,1.17.45l.48.65h0l.1.11a.83.83,0,0,0-.32-1.43,4.22,4.22,0,0,0-1.25-.34c-.09,0-.2,0-.21-.16a7,7,0,0,0,1.1-.33h.1c.21,0,.41.07.52-.19.14.18.29.1.44.06-.15-.51-.24-.58-.75-.58H33c.09-.22.25-.24.37-.32s.19-.08.17-.22H34a1.12,1.12,0,0,0-.75-.67,1.72,1.72,0,0,0-1.83.67c0-.39.18-.67.15-1-.79.08-.78.74-1,1.25-.15,0-.18-.14-.25-.21a1.49,1.49,0,0,0-1.6-.38c-.22.08-.44.17-.67.23a.68.68,0,0,0-.49.55,2.17,2.17,0,0,0,.92-.25h0v0h0c.07.32.36.23.59.3.13.28.5.3.73.62l-.39-.1a3.45,3.45,0,0,0-1.06-.11,1,1,0,0,0-.88,1.11c.16,0,.26-.12.43-.15.2.22.36,0,.55-.08.05.23.3.08.41.25-.31.26-.67.52-.47,1,.18-.09.31-.23.51-.18h0l0,0h0c-.11.18-.22.36-.32.54a1.64,1.64,0,0,0,0,1.48c.17,0,.09-.19.2-.24a4,4,0,0,0,.9-1.26c.05.65-.33,1.3,0,2,.1.09.19.25.39.26a5.74,5.74,0,0,1,.54-2.21c.42,2.23-.06,9.71-.69,10.81A2.8,2.8,0,0,1,29,27c0-1,.11-2,.06-3,.15,0,.12.18.23.13s.06-.27.13-.37.11.2.26.13,0-.39,0-.59c.2-.05.28.16.46.17.09-.36-.25-.39-.42-.54.11-.17.37,0,.42-.24s-.22-.09-.27-.21.12-.1.05-.2-.4-.14-.61,0-.11-.15-.22-.1-.12.18-.26.21a.7.7,0,0,0-.81.08c.1.13.3,0,.33.22-.16.07-.43,0-.42.31l.26.11c.07.29,0,.59.08.83.15,0,.16-.13.27-.11s0,.27.14.32.08-.27.23-.4a11.36,11.36,0,0,1-.2,3.31H27.08c.13-2,.22-4,.15-6,.23.3.16.69.33,1,.25-.13.24-.34.24-.55s-.11-.4-.06-.61c.24.22.25.63.63.71.27-.57-.09-1-.43-1.43l.75.31.14.2c.05.06.07.15.18.12.21-.35.17-.56-.16-.75a2.31,2.31,0,0,0-.56-.19c-.08,0-.19,0-.21-.12a8.73,8.73,0,0,1,1.09-.28.34.34,0,0,0-.16-.29c-.2-.08-.42,0-.63-.08.11-.17.29-.21.4-.34s-.18-.25-.33-.31c-.4-.18-.7.07-1,.23,0-.15.07-.29-.05-.41-.4,0-.34.42-.52.61-.66-.44-1.45-.37-1.63.14.69,0,.76,0,1,.34-.86-.09-1.07,0-1.08.59.24,0,.49-.09.75.06-.16.16-.32.3-.25.54,0,.05.07,0,.11,0s.07,0,.11,0a.94.94,0,0,0-.08,1c.34-.14.38-.51.62-.71-.11.9-.1.95.21,1.15.12-.36.07-.78.32-1.09a21,21,0,0,1-.36,6.13,3,3,0,0,1-1,0c-.08-.14,0-.29-.12-.4a.23.23,0,0,0-.17-.1c-2.63-.05-5.27,0-7.91,0a.5.5,0,0,0-.36.1c-.14.1-.05.32-.19.45a1.37,1.37,0,0,1-.77,0,21.37,21.37,0,0,1-.34-6c.26.31.19.72.35,1.1.43-.38.15-.81.16-1.21.25.22.3.58.61.73A.68.68,0,0,0,17,21c0-.19-.15-.34-.2-.51s.17,0,.22-.08c.1-.24-.12-.35-.21-.51.13-.09.25-.05.36-.07s.26.06.38,0c-.09-.55-.19-.61-1.12-.6.26-.35.63-.31,1-.29-.05-.31-.31-.29-.49-.37a1,1,0,0,0-.65-.08c-.21,0-.35.22-.55.27-.16-.23-.13-.61-.55-.59v.4h0l-.56-.26a.65.65,0,0,0-.8.37c.11.12.29.16.4.32-.27.14-.72-.13-.8.41a3.1,3.1,0,0,1,1.15.29,4.07,4.07,0,0,0-.81.25c-.35.19-.39.44-.14.78.14-.08.19-.25.35-.36l.57-.22a1.31,1.31,0,0,0-.3,1.37c.36-.12.38-.51.63-.71,0,.4-.28.86.19,1.21a3.34,3.34,0,0,1,.3-1A59,59,0,0,0,15.5,27,4.44,4.44,0,0,1,14,27a6.81,6.81,0,0,1-.17-3.16c.08.09,0,.28.17.32s0-.26.14-.34.14.16.28.07a3.6,3.6,0,0,0,.06-.81c.08-.07.22,0,.27-.13a.27.27,0,0,0-.12-.23c-.1-.07-.24,0-.33-.09s.27-.05.35-.2a.7.7,0,0,0-.82-.08c-.15-.05-.16-.21-.33-.25s0,.11-.14.13-.43-.16-.59.09l-.24.41c.08.15.28.05.37.18-.41.32-.41.32-.3.57.14-.05.24-.23.42-.13h0l0,0,0,0h0c-.1.19-.23.37-.06.59.15,0,.17-.17.29-.18v0c0,.14-.07.31.12.41.13-.08.05-.26.18-.33h0v0c0,1.07,0,2.13.08,3.19a2.43,2.43,0,0,1-1.12,0c-.62-1.6-1.09-9.63-.62-10.71a6.7,6.7,0,0,1,.54,2.2.7.7,0,0,0,.48-.7,3.94,3.94,0,0,0-.15-1.18c0-.11-.12-.24,0-.37a4.13,4.13,0,0,0,1.07,1.5,1.62,1.62,0,0,0-.07-1.66c-.08-.13-.21-.24-.15-.42h0l0,0,0,0h0a2.28,2.28,0,0,1,.46.26c.22-.55-.23-.79-.5-1.12.18-.08.36,0,.46-.17a.5.5,0,0,0,.55.06l.36.14s.05,0,.07,0c-.08-.82-.38-1.09-1.18-1.11a11.35,11.35,0,0,0-1.15.16,2.74,2.74,0,0,1,1.09-.64.26.26,0,0,0,.21-.14h0L13.92,13l0,0h0l.07.08h0c.28,0,.53.21.83.17-.05-.3-.1-.42-.29-.49a8.14,8.14,0,0,0-1.09-.35,1.4,1.4,0,0,0-1.31.41c-.08.08-.13.2-.26.23-.21-.5-.19-1.16-1-1.25-.06.34.18.62.1,1a3.62,3.62,0,0,0-.7-.52,1.3,1.3,0,0,0-1.8.58l.38,0c.08.28.48.23.61.52h-1c-.43,0-.55.13-.64.58a.37.37,0,0,0,.45,0c.15.35.4.16.6.15a1.63,1.63,0,0,0,1,.28c.15,0,.13.09.1.2a4.85,4.85,0,0,0-1.45.38c-.7.35-.8.91-.26,1.51a4.1,4.1,0,0,1,.53-.84c.44,0,.77-.35,1.27-.42-.23.31-.44.55-.62.8a1.48,1.48,0,0,0-.33.88,1.31,1.31,0,0,0,.22.88c.11-.06.06-.19.16-.23a3.24,3.24,0,0,0,.87-1.27c.16.14.07.27,0,.39a5.11,5.11,0,0,0-.15,1.1.85.85,0,0,0,.51.8,5.24,5.24,0,0,1,.51-2.11c-.05,1.78,0,3.55,0,5.32s.15,3.53.24,5.27A1.26,1.26,0,0,1,11,27.06Z" transform="translate(12.28 17.15)"/><path class="cls-15" d="M32.9,25.48h0Z" transform="translate(12.28 17.15)"/><path class="cls-16" d="M24.29,23.57,24,23.8H18.73a.36.36,0,0,1-.27-.06c-.31-.28-.7-.16-1.06-.24a2.45,2.45,0,0,1-.48.42c0,.75,0,1.51,0,2.24a1,1,0,0,0,.52.11,18.67,18.67,0,0,0,2.36-.13c1.73,0,3.46,0,5.19.12a.91.91,0,0,0,.57-.09V23.86a1.13,1.13,0,0,1-.45-.35Zm-6.2,2.07a.68.68,0,0,1-.64,0,2,2,0,0,1-.05-.93c0-.27.22-.32.69-.19a2.44,2.44,0,0,1,0,1.14Zm1.34,0a.83.83,0,0,1-.56,0c-.23-.32-.07-.7-.12-1,.3-.27.42-.28.76,0a1.93,1.93,0,0,1-.08,1.06Zm1.36,0a.72.72,0,0,1-.56,0,1.68,1.68,0,0,1,0-1.17.57.57,0,0,1,.67.09,1.92,1.92,0,0,1-.07,1.06Zm1.42,0a.69.69,0,0,1-.59,0,1.11,1.11,0,0,1,0-1.2.67.67,0,0,1,.5,0,1.78,1.78,0,0,1,.06,1.14Zm1.38-.05c-.2.18-.39.13-.65.09a1.47,1.47,0,0,1,0-1.18.67.67,0,0,1,.57,0,2.28,2.28,0,0,1,.05,1.07Zm1.33.06a.73.73,0,0,1-.63,0,3,3,0,0,1,0-1.08.48.48,0,0,1,.7,0,2.91,2.91,0,0,1,0,1.06Z" transform="translate(12.28 17.15)"/><path class="cls-17" d="M21.92,20.17a.33.33,0,0,0,0-.4c-.49,0-1,0-1.49,0a.27.27,0,0,0,0,.4A3.87,3.87,0,0,0,21.92,20.17Z" transform="translate(12.28 17.15)"/><path class="cls-18" d="M22,19.5c0-.36-.22-.5-.38-.67s0-.5-.1-.72-.35-.19-.5-.11c-.37.19-.17.57-.28.85s-.44.33-.31.69A2.35,2.35,0,0,0,22,19.5Z" transform="translate(12.28 17.15)"/><path class="cls-19" d="M17.11,23.32q4.13.18,8.16,0a.74.74,0,0,0,0-.61A3.43,3.43,0,0,0,23,20.76c-.25-.08-.52-.14-.61-.45a18.9,18.9,0,0,1-2.38,0c-.09.3-.33.37-.57.44a3.34,3.34,0,0,0-1.89,1.31A1.76,1.76,0,0,0,17.11,23.32Zm7.14-.27a1.45,1.45,0,0,1-.8,0,3.75,3.75,0,0,0-1.12-2.14A2.44,2.44,0,0,1,24.25,23.05Zm-3.19-2.19c.11-.1.19-.09.26-.05a.68.68,0,0,1,.06.42V23c0,.16,0,.32-.31.28C21,22.45,21,21.64,21.06,20.86Zm-1,0A4.23,4.23,0,0,0,19,23a1.36,1.36,0,0,1-.8,0A2.47,2.47,0,0,1,20.06,20.9Z" transform="translate(12.28 17.15)"/><path class="cls-3" d="M70,26.35a3.58,3.58,0,0,1-2.25-.18,34.06,34.06,0,0,1-.09-4.4c0-.83.25-1.38,1.1-1.55,0,0,0-.08.07-.22a20,20,0,0,0-3.29.06c0,.17.06.23.13.24a1.09,1.09,0,0,1,.89,1.27c0,1.26,0,2.53,0,3.79,0,.68-.19.92-.74,1.08A1.22,1.22,0,0,1,64.39,26a3.56,3.56,0,0,1-.41-.8c-.64-1.57-1.27-3.15-1.91-4.72-.11-.25-.17-.53-.46-.66a.82.82,0,0,0-.65.45c-.16.28-.26.59-.4.88-.92,1.86-1.23,4-2.78,5.56a4.87,4.87,0,0,0,2.49-.08c-.27-.21-.69-.17-.89-.63A3.73,3.73,0,0,1,60,24.07a12.84,12.84,0,0,1,2.32,0c.28.71.76,1.32.63,2-.19.31-.49.3-.58.62h9a4.76,4.76,0,0,0,.46-1.87C71.27,25.56,70.84,26.26,70,26.35Zm-9.81-3a14.09,14.09,0,0,1,.85-2.21A15.86,15.86,0,0,1,62,23.33,3,3,0,0,1,60.23,23.37Z" transform="translate(12.28 17.15)"/><path class="cls-3" d="M58.63,20.21s0-.08,0-.19a11.61,11.61,0,0,0-2.7.05c.34.33.72.27.88.56a11,11,0,0,1-1.76,4.58s-.09,0-.11-.07a39.72,39.72,0,0,1-1.71-3.9.68.68,0,0,1,0-.65c.16-.25.51-.19.73-.48a6.27,6.27,0,0,0-3.18.1,2.51,2.51,0,0,1,1.35,1.49c.69,1.55,1.38,3.1,2.09,4.64.11.25.14.59.5.7a1.32,1.32,0,0,0,.4-.64c.61-1.38,1.22-2.77,1.84-4.15A3.56,3.56,0,0,1,58.63,20.21Z" transform="translate(12.28 17.15)"/><path class="cls-3" d="M74.52,24.88c0-1.26,0-2.52,0-3.78a1,1,0,0,1,.12-.66,1.87,1.87,0,0,1,2.11,1c.37.87.07,1.4-1.26,2.33a2.54,2.54,0,0,0,2.17-.85A1.63,1.63,0,0,0,78,21.61a1.8,1.8,0,0,0-1.71-1.51A13.34,13.34,0,0,0,73.78,20l-.87,0-1.07,0c0,.28.37.37.55.37a1.13,1.13,0,0,1,.82.28,1.58,1.58,0,0,1,.22,1v3c0,1.39,0,1.39-1.07,2.11a21.09,21.09,0,0,0,3.64,0,1.69,1.69,0,0,0-.31-.21C74.61,26.1,74.53,26,74.52,24.88Z" transform="translate(12.28 17.15)"/><path class="cls-3" d="M107.54,23.21c-.35-.18-.68-.39-1-.59a3.6,3.6,0,0,1-.57-.39,1.09,1.09,0,0,1-.33-1.41,1.25,1.25,0,0,1,1.43-.55,1.55,1.55,0,0,1,.94.85c.09.17.08.41.4.49a2.15,2.15,0,0,0,0-1.35,3.06,3.06,0,0,0-3-.09,1.72,1.72,0,0,0-.2,3.07c.41.29.87.52,1.3.77a2.73,2.73,0,0,1,.76.59,1.13,1.13,0,0,1-.68,1.9,1.86,1.86,0,0,1-1.9-.7c-.22-.28-.4-.6-.6-.9l-.16,0a3.49,3.49,0,0,0,.18,1.47,3.6,3.6,0,0,0,2.77.46,2.05,2.05,0,0,0,1.82-1.63A1.94,1.94,0,0,0,107.54,23.21Z" transform="translate(12.28 17.15)"/><path class="cls-3" d="M102,24.92c0-.94,0-1.89,0-2.83,0-1.34-.17-1.37,1.18-1.95,0-.34-1.06-.23-1.89-.17l-.85,0c-.44,0-.63-.07-.71.19a.38.38,0,0,0,.3.2,1,1,0,0,1,.81,1c0,1.35,0,2.71,0,4.06a.92.92,0,0,1-.67,1,1.29,1.29,0,0,1-1.44-.35,3,3,0,0,1-.43-.78q-1-2.46-2-4.9c-.1-.23-.14-.5-.44-.6-.47,0-.63.4-.78.76-.41,1-.81,2-1.22,3-.28.65-.55,1.31-.84,2-.46,1-1,1.15-1.85.46a6.4,6.4,0,0,1-1.45-1.66,2.17,2.17,0,0,1-.49-1c.24-.29.57-.44.77-.72a1.57,1.57,0,0,0-1-2.49,14.22,14.22,0,0,0-3.91-.1s-.09.09-.18.17c.3.24.72.27,1,.72a28.93,28.93,0,0,1,.06,4.48,1,1,0,0,1-.71,1.06,1.35,1.35,0,0,1-1.52-.32,2.8,2.8,0,0,1-.5-.89c-.66-1.64-1.32-3.27-2-4.91-.08-.21-.11-.46-.38-.54-.56.16-.76.61-1,1.09-.51,1.25-1,2.49-1.54,3.75a3.26,3.26,0,0,1-1.54,1.93s0,.08,0,.23a14,14,0,0,0,2.67-.09c-.32-.27-.81-.28-.9-.9a5.94,5.94,0,0,1,.62-1.71,10.77,10.77,0,0,1,2.34,0,3.53,3.53,0,0,1,.59,2.14c-.13.21-.45.17-.51.43a32.44,32.44,0,0,0,6.57-.06c-.11-.19-.32-.17-.48-.23a.81.81,0,0,1-.56-.56,4.84,4.84,0,0,1,0-2.11,1.19,1.19,0,0,1,1.38.59,15.39,15.39,0,0,0,1.13,1.64,2.28,2.28,0,0,0,1.65.87c1,.13,2.06-.1,3.09-.05.06,0,.11-.07.09-.16-.2-.2-.58-.15-.77-.62a4.44,4.44,0,0,1,.55-1.91,11,11,0,0,1,2.43,0,4.48,4.48,0,0,1,.56,2.09c-.09.23-.44.19-.48.46a27.12,27.12,0,0,0,6.51-.12C102,26.49,102,25.72,102,24.92ZM79.46,23.44a6.56,6.56,0,0,1,.81-2.15,8.24,8.24,0,0,1,.91,2.06A4,4,0,0,1,79.46,23.44Zm9.49-1a2.11,2.11,0,0,1-1.89.83,11.55,11.55,0,0,1,0-2.88,1.79,1.79,0,0,1,1.86.7,1.13,1.13,0,0,1,0,1.35Zm5.58.93a7.61,7.61,0,0,1,.83-2.09,6.8,6.8,0,0,1,.9,2.13,3.48,3.48,0,0,1-1.73,0Z" transform="translate(12.28 17.15)"/><path class="cls-3" d="M117.26,21.82a12.57,12.57,0,0,1-.46-1.3,6,6,0,0,0-1.29-2.25,4.86,4.86,0,0,1-.89-5.64.3.3,0,0,0,0-.29c-.29-.21-.56,0-.8.12a3.62,3.62,0,0,0-1.37,1.32c-.24.42-.44.86-.68,1.28a1.22,1.22,0,0,1-1.53.72c-.2,0-.4-.1-.6-.16a20.34,20.34,0,0,1-5.55-2.68c-.21-.14-.39-.31-.66-.26a27.54,27.54,0,0,1,4.44,4.46c-.21.26-.44.22-.63.28s-.43,0-.54.22a8.3,8.3,0,0,0,1.6,1.5c-.19-.61-.88-.83-1.06-1.43.78-.39,1.49.11,2.31.1-.28-.88-1.07-1.26-1.64-2l.91.32a4.24,4.24,0,0,1,.61-.17,2.08,2.08,0,0,1,.61,0,7.94,7.94,0,0,1,5.7,3.92c.08.13.22.26.06.42a.63.63,0,0,1-.4-.1,5.31,5.31,0,0,0-3.32-.09,3.45,3.45,0,0,0-1.69,5.54,4.16,4.16,0,0,0,4,1.23A3.46,3.46,0,0,0,117.26,21.82ZM115.19,26a2.56,2.56,0,0,1-3.56-.56l-.1-.15a3.76,3.76,0,0,1-.44-3.1,2.36,2.36,0,0,1,2-1.93,2.42,2.42,0,0,1,2.61,1.22,3.92,3.92,0,0,1,.56,2.27A2.86,2.86,0,0,1,115.19,26Z" transform="translate(12.28 17.15)"/></g></g></g></svg>