<svg xmlns="http://www.w3.org/2000/svg" xmlns:xlink="http://www.w3.org/1999/xlink" viewBox="0 0 193.73 148.8"><defs><style>.cls-1,.cls-5{fill:none;}.cls-2,.cls-8{fill:#fff;}.cls-3{fill:#c32615;}.cls-4{clip-path:url(#clip-path);}.cls-5{stroke:#ef711c;stroke-linecap:round;stroke-linejoin:round;}.cls-5,.cls-8{stroke-width:2px;}.cls-6{opacity:0.03;}.cls-7{fill:#fbb03b;}.cls-8{stroke:#fbb03b;stroke-miterlimit:10;}.cls-9{fill:url(#Degradado_sin_nombre_12);}.cls-10{fill:url(#Degradado_sin_nombre_12-2);}.cls-11{fill:url(#Degradado_sin_nombre_12-3);}.cls-12{fill:url(#Degradado_sin_nombre_12-4);}.cls-13{fill:url(#Degradado_sin_nombre_12-5);}.cls-14{fill:url(#Degradado_sin_nombre_12-6);}.cls-15{fill:url(#Degradado_sin_nombre_12-7);}</style><clipPath id="clip-path" transform="translate(17.64 31.57)"><rect class="cls-1" x="30.04" y="-29.95" width="116.1" height="176" rx="8.25" transform="translate(146.14 -30.04) rotate(90)"/></clipPath><linearGradient id="Degradado_sin_nombre_12" x1="0.08" y1="55.69" x2="176.09" y2="55.69" gradientUnits="userSpaceOnUse"><stop offset="0" stop-color="#c32615"/><stop offset="1" stop-color="#ef711c"/></linearGradient><linearGradient id="Degradado_sin_nombre_12-2" x1="26.36" y1="271.69" x2="39.29" y2="294.08" gradientTransform="matrix(1, 0, 0, -1, 0, 311.56)" xlink:href="#Degradado_sin_nombre_12"/><linearGradient id="Degradado_sin_nombre_12-3" x1="44.42" y1="277.55" x2="44.42" y2="277.57" gradientTransform="matrix(1, 0, 0, -1, 0, 311.56)" xlink:href="#Degradado_sin_nombre_12"/><linearGradient id="Degradado_sin_nombre_12-4" x1="31.2" y1="275.29" x2="34.39" y2="280.82" gradientTransform="matrix(1, 0, 0, -1, 0, 311.56)" xlink:href="#Degradado_sin_nombre_12"/><linearGradient id="Degradado_sin_nombre_12-5" x1="32.42" y1="282.61" x2="32.96" y2="283.54" gradientTransform="matrix(1, 0, 0, -1, 0, 311.56)" xlink:href="#Degradado_sin_nombre_12"/><linearGradient id="Degradado_sin_nombre_12-6" x1="32.36" y1="283.25" x2="33.25" y2="284.8" gradientTransform="matrix(1, 0, 0, -1, 0, 311.56)" xlink:href="#Degradado_sin_nombre_12"/><linearGradient id="Degradado_sin_nombre_12-7" x1="31.57" y1="278.02" x2="34.2" y2="282.58" gradientTransform="matrix(1, 0, 0, -1, 0, 311.56)" xlink:href="#Degradado_sin_nombre_12"/></defs><g id="Capa_2" data-name="Capa 2"><g id="OBJECTS"><rect class="cls-2" x="30.04" y="-29.95" width="116.1" height="176" rx="8.25" transform="translate(163.78 1.53) rotate(90)"/><rect class="cls-3" x="30.04" y="-29.95" width="116.1" height="176" rx="8.25" transform="translate(163.78 1.53) rotate(90)"/><g class="cls-4"><line class="cls-5" x1="103.17" y1="94.91" x2="1" y2="34.24"/><polyline class="cls-5" points="97.45 69.14 70.42 75.46 77.81 102.21"/><polyline class="cls-5" points="91.22 55.45 52.11 64.59 62.8 103.3"/><polyline class="cls-5" points="77.75 37.46 26.57 49.42 40.56 100.08"/><polyline class="cls-5" points="64.73 29.73 13.55 41.69 27.55 92.36"/><path class="cls-5" d="M15.39,65.09c-28.22-16.75-32-62.42-32-62.42S25.28-15.83,53.49.92s32,62.42,32,62.42S43.6,81.85,15.39,65.09Z" transform="translate(17.64 31.57)"/><line class="cls-5" x1="124.78" y1="1" x2="162.74" y2="113.6"/><polyline class="cls-5" points="112.33 24.27 136.95 37.09 148.77 11.99"/><polyline class="cls-5" points="108.13 38.72 143.75 57.27 160.86 20.94"/><polyline class="cls-5" points="106.62 61.14 153.24 85.42 175.64 37.87"/><polyline class="cls-5" points="111.46 75.49 158.08 99.77 180.48 52.22"/><path class="cls-5" d="M161.47,13.81C172,44.91,145.09,82,145.09,82S101.23,68.75,90.75,37.66s16.38-68.23,16.38-68.23S151-17.28,161.47,13.81Z" transform="translate(17.64 31.57)"/></g><rect class="cls-6" x="56.5" y="52.12" width="137.24" height="19.49"/><rect class="cls-7" x="56.5" y="50.12" width="137.24" height="19.49"/><circle class="cls-6" cx="32.72" cy="30.3" r="16.5" transform="translate(13.31 86.69) rotate(-76.62)"/><circle class="cls-8" cx="32.72" cy="28.3" r="16.5" transform="translate(15.25 85.15) rotate(-76.62)"/><g class="cls-4"><path class="cls-6" d="M.08,99.34c25.18,3.87,148,19.22,159.09-105.2h8.61a8.24,8.24,0,0,1,4.31,7.25V108a8.25,8.25,0,0,1-8.25,8.25H4.39A8.26,8.26,0,0,1,.08,109Z" transform="translate(17.64 31.57)"/><path class="cls-9" d="M8.33,117.24A8.25,8.25,0,0,1,.08,109V99.71C9.58,101,151.92,129.35,163.26-5.86h4.58a8.25,8.25,0,0,1,8.25,8.25V109a8.25,8.25,0,0,1-8.25,8.25Z" transform="translate(17.64 31.57)"/></g><rect class="cls-2" x="17.64" y="84.07" width="176.09" height="56"/><path class="cls-10" d="M22.52,35.58H19.85c-.16,0-.35,0-.44.14s.11.22.23.23H45.29a1.69,1.69,0,0,0,.32,0c.11,0,.21-.06.21-.22s-.25-.14-.41-.14H43c-.16,0-.32.05-.49-.09A92.34,92.34,0,0,0,42.7,25,5,5,0,0,1,43.2,27a.8.8,0,0,0,.5-.84,4.38,4.38,0,0,0-.18-1.14c0-.11-.09-.23.13-.31,0,.35.3.54.4.82s.42.42.59.67a1.62,1.62,0,0,0,0-1.54A5.2,5.2,0,0,0,44,23.9c-.06-.06-.15-.12,0-.25a3.73,3.73,0,0,0,1.17.45l.49.66h0l.1.1a.84.84,0,0,0-.33-1.43,4.55,4.55,0,0,0-1.25-.34c-.09,0-.19,0-.21-.16.35-.15.77-.11,1.11-.33h.09c.21,0,.41.07.53-.19.13.18.28.11.43.06-.14-.5-.24-.58-.74-.58H44.5c.09-.22.25-.24.37-.31s.19-.09.18-.22h0l0,0h.46a1.11,1.11,0,0,0-.75-.68,1.72,1.72,0,0,0-1.83.67c0-.39.18-.67.16-1-.79.08-.79.74-1,1.25-.15,0-.18-.13-.26-.2a1.45,1.45,0,0,0-1.6-.38l-.67.23a.67.67,0,0,0-.49.55,2.24,2.24,0,0,0,.92-.26h0v0h0c.07.33.35.24.58.3.14.28.51.3.73.62l-.39-.1a3.42,3.42,0,0,0-1.06-.11A1,1,0,0,0,39,23.33c.16,0,.26-.12.43-.14.2.21.37,0,.56-.09,0,.24.29.08.41.26-.31.25-.68.51-.48,1,.18-.09.32-.23.52-.18h0l0,0h0c-.1.18-.22.36-.31.55a1.64,1.64,0,0,0,0,1.48c.18,0,.1-.2.2-.24a3.88,3.88,0,0,0,.91-1.27c.05.66-.33,1.3,0,2,.11.09.19.25.4.26a5.57,5.57,0,0,1,.54-2.21c.42,2.23-.06,9.71-.69,10.81a2.85,2.85,0,0,1-1,0c0-1,.12-2,.06-3,.16,0,.13.19.23.13s.06-.26.13-.37.12.21.26.14,0-.4,0-.6c.2,0,.28.16.46.18.1-.37-.25-.4-.42-.55.11-.16.38,0,.42-.24s-.22-.09-.26-.21.11-.09,0-.19a.47.47,0,0,0-.61,0c-.11,0-.12-.14-.22-.1s-.12.18-.27.22a.67.67,0,0,0-.81.08c.1.12.3,0,.33.21-.16.07-.43,0-.41.32l.25.1c.08.3,0,.59.08.84.15,0,.16-.13.27-.12s0,.27.15.32.08-.27.23-.4a11.36,11.36,0,0,1-.21,3.31H38.6c.12-2,.22-4,.14-6,.23.3.16.68.33,1,.26-.12.24-.34.25-.55s-.12-.39-.07-.61c.24.22.25.63.63.72.27-.58-.09-1-.43-1.44l.75.32.15.19c0,.06.07.15.17.12.22-.35.17-.55-.16-.74a1.77,1.77,0,0,0-.56-.19c-.08,0-.19,0-.21-.12a7.45,7.45,0,0,1,1.1-.29.32.32,0,0,0-.17-.28c-.2-.08-.42,0-.62-.08.1-.18.29-.22.39-.35s-.18-.25-.32-.31c-.4-.18-.71.07-1,.24,0-.15.08-.29,0-.41-.4,0-.33.42-.52.6-.66-.44-1.45-.37-1.63.14.69,0,.76.05,1,.35-.86-.09-1.06,0-1.08.59.25,0,.5-.1.76,0-.17.16-.33.31-.26.54a.1.1,0,0,0,.12,0s.07,0,.11,0a.92.92,0,0,0-.08,1c.34-.15.37-.52.62-.72-.11.91-.1,1,.2,1.15.12-.36.07-.77.33-1.09A21.48,21.48,0,0,1,38,35.58a3.3,3.3,0,0,1-1,0c-.08-.14,0-.29-.12-.4a.27.27,0,0,0-.16-.1c-2.64-.05-5.28,0-7.91,0a.49.49,0,0,0-.36.09c-.14.1-.05.32-.2.45a1.37,1.37,0,0,1-.77,0,21.32,21.32,0,0,1-.34-6c.27.3.19.72.36,1.09.42-.37.14-.81.16-1.21.24.23.3.58.61.73a.71.71,0,0,0,.12-.54c0-.18-.14-.33-.19-.51s.17,0,.21-.08-.12-.35-.21-.51c.13-.09.25,0,.36-.06s.26.05.38,0c-.08-.55-.19-.61-1.12-.59.27-.35.64-.32,1-.3-.05-.31-.3-.29-.48-.37a1.16,1.16,0,0,0-.66-.08c-.21,0-.35.23-.55.27-.16-.23-.13-.61-.55-.58v.39h0v0a5.62,5.62,0,0,0-.56-.25.62.62,0,0,0-.79.36c.11.13.29.16.39.32-.27.14-.72-.13-.8.41a2.85,2.85,0,0,1,1.15.3,3.27,3.27,0,0,0-.8.25c-.35.18-.4.43-.15.77.15-.08.19-.25.35-.35l.58-.23a1.3,1.3,0,0,0-.31,1.37c.36-.12.38-.5.64-.71,0,.41-.28.86.18,1.22a3.08,3.08,0,0,1,.31-1,59.15,59.15,0,0,0,.14,6,4.15,4.15,0,0,1-1.53,0,6.79,6.79,0,0,1-.18-3.15c.09.09,0,.27.18.31s0-.25.14-.34.14.16.28.08A4.41,4.41,0,0,0,26,31.6c.08-.06.22,0,.27-.12a.25.25,0,0,0-.12-.24c-.1-.06-.24,0-.33-.09s.27,0,.36-.19a.7.7,0,0,0-.83-.08c-.14-.06-.16-.22-.33-.25s0,.11-.13.12-.44-.16-.6.09l-.24.42c.08.14.29,0,.38.18-.42.31-.42.31-.3.56.13-.05.23-.23.41-.13h0l0,0,0,0h0c-.11.19-.24.37-.06.59.14,0,.16-.17.29-.18s0,0,0,0v0c0,.15-.07.31.12.41.14-.08.06-.26.18-.33h0v0c0,1.06,0,2.12.09,3.18a2.34,2.34,0,0,1-1.13,0c-.62-1.6-1.09-9.63-.61-10.71A6.45,6.45,0,0,1,23.9,27a.72.72,0,0,0,.48-.71,4.21,4.21,0,0,0-.14-1.17c0-.12-.13-.25,0-.38a4.1,4.1,0,0,0,1.06,1.5,1.62,1.62,0,0,0-.07-1.66c-.07-.13-.21-.24-.15-.42h0v0h0a2.4,2.4,0,0,1,.46.27c.22-.56-.24-.8-.51-1.13.19-.08.37,0,.46-.17a.52.52,0,0,0,.56.06l.36.15.07,0c-.08-.83-.39-1.1-1.18-1.12a11.16,11.16,0,0,0-1.16.16,2.86,2.86,0,0,1,1.09-.63.34.34,0,0,0,.22-.15h0l-.07-.08v0l0,0,.07.08h0c.29,0,.54.21.84.17-.05-.3-.1-.42-.3-.49A7.7,7.7,0,0,0,25,20.92a1.39,1.39,0,0,0-1.3.41c-.08.08-.14.2-.27.23-.2-.5-.19-1.16-1-1.25-.07.34.18.62.09,1a4,4,0,0,0-.69-.52c-.62-.31-1.62-.1-1.8.58l.38,0c.08.29.47.23.61.52h-1c-.44,0-.56.13-.65.58a.37.37,0,0,0,.45,0c.15.35.41.16.6.15a1.58,1.58,0,0,0,.95.28c.15,0,.13.09.1.21a4.51,4.51,0,0,0-1.44.38c-.7.34-.8.9-.27,1.51a3.6,3.6,0,0,1,.54-.85c.44,0,.76-.35,1.27-.42-.24.31-.44.55-.62.8a1.44,1.44,0,0,0-.33.88,1.39,1.39,0,0,0,.21.89c.12-.07.06-.19.16-.23a3.17,3.17,0,0,0,.87-1.28c.16.14.07.27.05.39a4.11,4.11,0,0,0-.15,1.1.82.82,0,0,0,.51.8,5.07,5.07,0,0,1,.5-2.11c0,1.78,0,3.55,0,5.32s.15,3.53.23,5.28A1.4,1.4,0,0,1,22.52,35.58Z" transform="translate(17.64 31.57)"/><path class="cls-11" d="M44.42,34v0h0Z" transform="translate(17.64 31.57)"/><path class="cls-12" d="M35.8,32.09l-.32.23H30.25a.35.35,0,0,1-.27-.06c-.31-.28-.7-.16-1.06-.24a3.21,3.21,0,0,1-.48.42c0,.75,0,1.51,0,2.24a1,1,0,0,0,.52.11,18.72,18.72,0,0,0,2.37-.13c1.73,0,3.46,0,5.18.13a.92.92,0,0,0,.57-.1v-2.3a1.16,1.16,0,0,1-.45-.36Zm-6.2,2.07a.67.67,0,0,1-.63,0,1.9,1.9,0,0,1,0-.92c0-.27.21-.33.68-.2a2.44,2.44,0,0,1,0,1.14Zm1.34,0a.86.86,0,0,1-.55,0c-.24-.32-.08-.69-.12-1,.29-.27.41-.27.76,0a1.94,1.94,0,0,1-.09,1.06Zm1.37,0a.73.73,0,0,1-.56,0A1.66,1.66,0,0,1,31.7,33a.57.57,0,0,1,.68.08,2.06,2.06,0,0,1-.07,1.07Zm1.41,0a.69.69,0,0,1-.59,0,1.15,1.15,0,0,1,0-1.2.72.72,0,0,1,.5,0,1.78,1.78,0,0,1,.06,1.14Zm1.38,0c-.19.19-.39.14-.64.1a1.49,1.49,0,0,1,0-1.19.64.64,0,0,1,.57,0,2,2,0,0,1,.05,1.06Zm1.33.06a.68.68,0,0,1-.62,0,3,3,0,0,1-.05-1.08.49.49,0,0,1,.7,0,2.91,2.91,0,0,1,0,1.06Z" transform="translate(17.64 31.57)"/><path class="cls-13" d="M33.43,28.69a.32.32,0,0,0,0-.39c-.48,0-1,0-1.49,0a.26.26,0,0,0,0,.39A3.82,3.82,0,0,0,33.43,28.69Z" transform="translate(17.64 31.57)"/><path class="cls-14" d="M33.49,28c0-.37-.21-.51-.38-.68s0-.5-.1-.72-.35-.18-.5-.11c-.37.19-.17.58-.28.85s-.44.34-.3.69A2.38,2.38,0,0,0,33.49,28Z" transform="translate(17.64 31.57)"/><path class="cls-15" d="M28.63,31.84c2.75.12,5.46.13,8.16,0,.06-.35.06-.36,0-.6a3.37,3.37,0,0,0-2.23-1.95c-.25-.08-.51-.13-.61-.44a23.42,23.42,0,0,1-2.37,0c-.1.29-.33.36-.58.44a3.36,3.36,0,0,0-1.89,1.3A1.76,1.76,0,0,0,28.63,31.84Zm7.13-.27a1.42,1.42,0,0,1-.79,0,3.85,3.85,0,0,0-1.12-2.14A2.43,2.43,0,0,1,35.76,31.57Zm-3.18-2.18a.22.22,0,0,1,.26-.06.68.68,0,0,1,.06.42V31.5c0,.16,0,.32-.32.28C32.56,31,32.55,30.16,32.58,29.39Zm-1,0a4.12,4.12,0,0,0-1.09,2.13,1.4,1.4,0,0,1-.81,0A2.47,2.47,0,0,1,31.58,29.42Z" transform="translate(17.64 31.57)"/><path class="cls-2" d="M81.55,34.87a3.54,3.54,0,0,1-2.24-.17,32.5,32.5,0,0,1-.09-4.41c0-.83.25-1.38,1.1-1.55,0,0,0-.08.06-.22a20,20,0,0,0-3.29.06c0,.18.06.23.14.24.69.15.89.62.88,1.27,0,1.27,0,2.53,0,3.79,0,.68-.19.92-.73,1.08a1.23,1.23,0,0,1-1.46-.46,4,4,0,0,1-.41-.8q-.94-2.36-1.91-4.72c-.1-.24-.16-.53-.46-.65a.8.8,0,0,0-.65.44c-.15.28-.26.59-.4.88-.91,1.86-1.23,4-2.78,5.56a4.65,4.65,0,0,0,2.49-.08c-.27-.21-.69-.16-.88-.62a3.78,3.78,0,0,1,.6-1.91,12.09,12.09,0,0,1,2.33,0c.27.71.75,1.32.62,2-.18.31-.49.3-.58.62h9a4.58,4.58,0,0,0,.46-1.86C82.78,34.08,82.36,34.78,81.55,34.87Zm-9.81-3a14.56,14.56,0,0,1,.86-2.21,16.7,16.7,0,0,1,.91,2.18A3,3,0,0,1,71.74,31.89Z" transform="translate(17.64 31.57)"/><path class="cls-2" d="M70.15,28.73a1,1,0,0,0,0-.19,11.18,11.18,0,0,0-2.71.06c.35.33.72.26.89.55a11,11,0,0,1-1.76,4.58s-.1,0-.11-.07a35.76,35.76,0,0,1-1.72-3.9.71.71,0,0,1,0-.65c.17-.24.52-.19.74-.48a6.29,6.29,0,0,0-3.19.11,2.44,2.44,0,0,1,1.35,1.48q1,2.33,2.09,4.64c.12.25.15.59.5.7a1.32,1.32,0,0,0,.4-.64c.62-1.37,1.23-2.77,1.85-4.14A3.58,3.58,0,0,1,70.15,28.73Z" transform="translate(17.64 31.57)"/><path class="cls-2" d="M86,33.4c0-1.26,0-2.52,0-3.78a1,1,0,0,1,.12-.66,1.87,1.87,0,0,1,2.12,1c.36.87.06,1.4-1.26,2.33a2.54,2.54,0,0,0,2.17-.85,1.56,1.56,0,0,0,.35-1.28,1.78,1.78,0,0,0-1.7-1.52,13.49,13.49,0,0,0-2.54-.15l-.87,0-1.06,0c0,.27.37.36.55.37a1.12,1.12,0,0,1,.81.27,1.61,1.61,0,0,1,.23,1v2.95c0,1.39,0,1.39-1.07,2.11a21.09,21.09,0,0,0,3.64,0,2.11,2.11,0,0,0-.31-.21C86.12,34.62,86.05,34.53,86,33.4Z" transform="translate(17.64 31.57)"/><path class="cls-2" d="M119.05,31.73c-.34-.18-.68-.38-1-.59a3.12,3.12,0,0,1-.56-.39,1.09,1.09,0,0,1-.34-1.41,1.27,1.27,0,0,1,1.43-.55,1.55,1.55,0,0,1,.94.85c.09.17.09.41.4.49a2.08,2.08,0,0,0,0-1.35,3.06,3.06,0,0,0-3-.08,1.71,1.71,0,0,0-.2,3.06c.42.29.87.52,1.31.78a2.65,2.65,0,0,1,.75.58,1.13,1.13,0,0,1-.68,1.9,1.82,1.82,0,0,1-1.89-.7c-.23-.28-.41-.6-.61-.9l-.16,0a3.51,3.51,0,0,0,.19,1.47,3.57,3.57,0,0,0,2.76.45,2,2,0,0,0,1.82-1.63A1.92,1.92,0,0,0,119.05,31.73Z" transform="translate(17.64 31.57)"/><path class="cls-2" d="M113.5,33.44c0-.94,0-1.88,0-2.82,0-1.34-.17-1.38,1.18-2,0-.34-1.05-.23-1.88-.17l-.85,0c-.45,0-.64-.08-.72.18a.37.37,0,0,0,.31.2,1,1,0,0,1,.8,1c0,1.36,0,2.71,0,4.06a.91.91,0,0,1-.66,1,1.27,1.27,0,0,1-1.44-.35,3,3,0,0,1-.44-.78c-.66-1.63-1.33-3.27-2-4.9-.09-.23-.14-.5-.44-.59-.46,0-.62.39-.77.75-.42,1-.82,2-1.23,3-.27.66-.55,1.31-.83,2-.47,1-1,1.16-1.86.46a6.32,6.32,0,0,1-1.44-1.65,2.25,2.25,0,0,1-.49-1c.23-.29.56-.44.77-.72a1.57,1.57,0,0,0-1-2.49,14.14,14.14,0,0,0-3.9-.09s-.09.08-.19.16c.3.24.72.27,1,.72a27.76,27.76,0,0,1,.05,4.48A1,1,0,0,1,96.69,35a1.32,1.32,0,0,1-1.51-.32,2.91,2.91,0,0,1-.51-.89l-2-4.91c-.08-.2-.12-.45-.39-.54-.55.16-.75.62-1,1.09-.51,1.25-1,2.5-1.54,3.75a3.26,3.26,0,0,1-1.54,1.93,1.56,1.56,0,0,0,0,.24A14.11,14.11,0,0,0,91,35.2c-.32-.27-.82-.28-.91-.9a5.79,5.79,0,0,1,.63-1.71,11.44,11.44,0,0,1,2.34,0c.29.72.76,1.34.59,2.14-.13.21-.45.17-.52.43a31.73,31.73,0,0,0,6.57-.06c-.1-.19-.31-.16-.48-.22a.79.79,0,0,1-.55-.57,4.8,4.8,0,0,1,0-2.1,1.18,1.18,0,0,1,1.38.58,15.39,15.39,0,0,0,1.13,1.64,2.3,2.3,0,0,0,1.66.87c1,.13,2-.1,3.08,0,.07,0,.12-.06.1-.16-.21-.19-.59-.14-.78-.61a4.62,4.62,0,0,1,.55-1.92,11.72,11.72,0,0,1,2.44,0,4.73,4.73,0,0,1,.56,2.09c-.09.24-.44.19-.48.46a27.13,27.13,0,0,0,6.51-.12C113.52,35,113.5,34.24,113.5,33.44ZM91,32a6.64,6.64,0,0,1,.81-2.15,8.18,8.18,0,0,1,.92,2.07A4.23,4.23,0,0,1,91,32Zm9.5-1a2.11,2.11,0,0,1-1.9.83,11.53,11.53,0,0,1,0-2.88,1.78,1.78,0,0,1,1.85.7,1.11,1.11,0,0,1,0,1.35Zm5.58.93a7.71,7.71,0,0,1,.82-2.09,6.58,6.58,0,0,1,.9,2.13,3.48,3.48,0,0,1-1.73,0Z" transform="translate(17.64 31.57)"/><path class="cls-2" d="M128.77,30.34a10,10,0,0,1-.45-1.3,5.93,5.93,0,0,0-1.3-2.25,4.88,4.88,0,0,1-.89-5.64.24.24,0,0,0,0-.28c-.28-.22-.56,0-.8.11A3.69,3.69,0,0,0,124,22.3c-.23.42-.44.86-.67,1.28a1.23,1.23,0,0,1-1.54.72c-.2,0-.4-.1-.6-.16a20.48,20.48,0,0,1-5.55-2.68.86.86,0,0,0-.66-.25,27.61,27.61,0,0,1,4.45,4.46c-.22.26-.44.22-.63.27s-.43,0-.54.23a7.92,7.92,0,0,0,1.59,1.49c-.18-.61-.87-.83-1.06-1.43.78-.39,1.49.11,2.31.11-.27-.89-1.07-1.27-1.63-2l.9.32a4.21,4.21,0,0,1,.61-.16,1.57,1.57,0,0,1,.61,0,8,8,0,0,1,5.71,3.92c.07.12.21.26,0,.41a.7.7,0,0,1-.4-.09,5.14,5.14,0,0,0-3.31-.09,3.42,3.42,0,0,0-1.69,5.53,4.16,4.16,0,0,0,4,1.23A3.45,3.45,0,0,0,128.77,30.34Zm-2.06,4.22a2.54,2.54,0,0,1-3.56-.56,1.3,1.3,0,0,1-.1-.15,3.81,3.81,0,0,1-.45-3.1,2.38,2.38,0,0,1,2-1.93,2.43,2.43,0,0,1,2.62,1.23,4,4,0,0,1,.56,2.26,2.84,2.84,0,0,1-1.08,2.25Z" transform="translate(17.64 31.57)"/></g></g></svg>